<svg xmlns="http://www.w3.org/2000/svg" xmlns:xlink="http://www.w3.org/1999/xlink" width="570" height="396.962" viewBox="0 0 570 396.962">
  <defs>
    <clipPath id="clip-path">
      <rect id="Rectangle_148816" data-name="Rectangle 148816" width="125.26" height="125.26" rx="7.633" fill="none"/>
    </clipPath>
    <clipPath id="clip-path-2">
      <path id="Rectangle_148819" data-name="Rectangle 148819" d="M3.321,0H124.4a3.321,3.321,0,0,1,3.321,3.321V79.09A3.321,3.321,0,0,1,124.4,82.41H3.32A3.32,3.32,0,0,1,0,79.09V3.321A3.321,3.321,0,0,1,3.321,0Z" fill="none"/>
    </clipPath>
    <clipPath id="clip-path-3">
      <rect id="Rectangle_148822" data-name="Rectangle 148822" width="162.171" height="120.892" rx="5.507" fill="none"/>
    </clipPath>
    <clipPath id="clip-path-4">
      <rect id="Rectangle_148824" data-name="Rectangle 148824" width="147.413" height="109.89" rx="5.507" transform="translate(109.891 0) rotate(90)" fill="none"/>
    </clipPath>
  </defs>
  <g id="Alumni_2" data-name="Alumni  2" transform="translate(-812 -2149.499)">
    <g id="Group_175027" data-name="Group 175027" transform="translate(0 -2081.501)">
      <path id="Path_80300" data-name="Path 80300" d="M678.293,317.954c-4.821,39.255-32.637,32.723-37.029,78.366-1.567,16.291,10.289,26.532,16.18,40.637,6.524,15.59,4.213,29.6-4.6,40.283H169.362c-10.688-4.906-20.887-10.126-29.764-16.394-12.221-8.612-21.893-19.228-26.825-33.782-4.452-13.151-7.882-25.838,3.813-35.813,6.349-5.423,12.958-9.608,18.7-14.635a45.448,45.448,0,0,0,11.033-13.655c21.076-41.21-5.96-77.527-15.889-118.763-.958-4.007-1.835-8.054-2.534-12.115-1.821-10.343-2.668-20.836-1.588-31.057a68.448,68.448,0,0,1,8.478-27.132c7.373-12.919,26.472-32,46.995-28.359,15.421,2.739,25.125,17.811,39.049,23.262,17.547,6.868,37.014,1.376,50.159-8.721,25.566-19.637,41.949-56.963,85.645-53.542,14.816,1.158,24.818,13.082,37.809,18.547,17.859,7.522,35.476,7.467,52.544.149,19.628-8.421,33.095-24.065,52.368-33.019a130.4,130.4,0,0,1,20.349-7.454c15.5-4.279,32.458-5.792,48.448-2.494a94.223,94.223,0,0,1,9.65,2.494c53.458,16.775,55.974,71.721,53.458,111.813-1.154,18.369-15.58,50.049-4.923,69.029S682.955,279.995,678.293,317.954Z" transform="translate(703.377 4150.528)" fill="rgba(252,79,25,0.99)" opacity="0.1"/>
    </g>
    <g id="Group_175026" data-name="Group 175026" transform="translate(878.24 2181.539)">
      <g id="OBJECTS" transform="translate(26.981 42.702)">
        <g id="Group_174978" data-name="Group 174978">
          <g id="Group_174972" data-name="Group 174972" transform="translate(43.116)">
            <path id="Path_88170" data-name="Path 88170" d="M119.775,126.95c2.005-4.1,2.415-9.342,2.288-13.9-.2-7.235-5.84-14.168-3.719-21.088,1.71-5.582,8.043-9.057,8.979-14.82.879-5.416-3.4-10.37-3.826-15.84-.436-5.532,3.064-11.349.763-16.4a3.458,3.458,0,0,0-4.526-2.036c-5.63,1.353-7.685,8.2-11.861,12.207-5.91,5.677-16.409,5.831-20.445,12.962-2.663,4.708-1.321,10.594.353,15.737s3.63,10.663,1.986,15.815c-1.677,5.258-6.7,8.748-9.172,13.681-2.987,5.953-1.73,13.523,2.316,18.813s10.507,8.409,17.107,9.3C100.019,141.383,111.632,143.595,119.775,126.95Z" transform="translate(-78.948 -42.702)" fill="#7ec682"/>
            <path id="Path_88171" data-name="Path 88171" d="M122.72,51.924c-9.049,17.895-24.459,65.936-22.2,101.722" transform="translate(-82.585 -44.273)" fill="none" stroke="#bceca4" stroke-linecap="round" stroke-linejoin="round" stroke-width="1.868"/>
          </g>
          <g id="Group_174973" data-name="Group 174973" transform="translate(12.779 26.231)">
            <path id="Path_88172" data-name="Path 88172" d="M106.9,136.9c-1.4-4.344-4.737-8.406-7.993-11.6-5.163-5.073-14.032-6.159-17.3-12.615-2.638-5.207-.485-12.1-3.807-16.9-3.122-4.512-9.638-5.117-13.741-8.76-4.15-3.684-5.663-10.3-10.822-12.346a3.459,3.459,0,0,0-4.673,1.672c-3.119,4.879.146,11.234-.081,17.02-.322,8.188-7.779,15.58-5.741,23.517,1.344,5.238,6.394,8.549,11.167,11.093s10.009,5.166,12.4,10.018c2.438,4.952,1.24,10.947,2.878,16.217,1.975,6.361,8.13,10.944,14.714,11.95s13.4-1.228,18.778-5.159C102.672,161,112.573,154.537,106.9,136.9Z" transform="translate(-42.384 -74.318)" fill="#bceca4"/>
            <path id="Path_88173" data-name="Path 88173" d="M55.522,83.8c5.889,19.168,28.1,64.469,54.546,88.683" transform="translate(-44.621 -75.934)" fill="none" stroke="#7ec682" stroke-linecap="round" stroke-linejoin="round" stroke-width="1.868"/>
          </g>
          <g id="Group_174976" data-name="Group 174976" transform="translate(303.248 175.596)">
            <path id="Path_88178" data-name="Path 88178" d="M422.9,318.746c3.178-2.322,5.6-6.159,7.333-9.692,2.753-5.6,1.236-13.158,5.634-17.587,3.548-3.573,9.778-3.68,12.807-7.7,2.847-3.78,1.575-9.277,3.444-13.625,1.89-4.4,6.9-7.431,7.172-12.209a2.982,2.982,0,0,0-2.636-3.372c-4.841-1.23-9.158,3.166-13.957,4.55-6.791,1.957-14.865-2.143-20.811,1.678-3.924,2.521-5.264,7.554-6.053,12.151s-1.514,9.6-4.839,12.868c-3.392,3.338-8.625,3.985-12.5,6.754-4.671,3.343-6.754,9.625-5.791,15.288s4.64,10.638,9.317,13.974C402.026,321.822,410,328.176,422.9,318.746Z" transform="translate(-392.48 -254.344)" fill="#7ec682"/>
            <path id="Path_88179" data-name="Path 88179" d="M453.737,261.177c-14.095,10.021-45.158,40.491-57.809,68.71" transform="translate(-393.067 -255.508)" fill="none" stroke="#bceca4" stroke-linecap="round" stroke-linejoin="round" stroke-width="1.611"/>
          </g>
          <g id="Group_174977" data-name="Group 174977" transform="translate(304.204 100.233)">
            <path id="Path_88180" data-name="Path 88180" d="M434.145,247.624c2.187-4.006,2.831-9.224,2.907-13.788.121-7.237-5.2-14.415-2.772-21.233,1.958-5.5,8.44-8.688,9.632-14.4,1.121-5.371-2.928-10.511-3.114-16-.187-5.546,3.568-11.2,1.5-16.349a3.458,3.458,0,0,0-4.43-2.236c-5.685,1.1-8.043,7.843-12.4,11.664-6.157,5.407-16.653,5.092-21,12.035-2.872,4.583-1.794,10.525-.351,15.737s3.149,10.815,1.278,15.889c-1.911,5.177-7.082,8.44-9.774,13.256-3.251,5.814-2.334,13.433,1.473,18.9s10.12,8.87,16.673,10.061C413.763,261.159,425.266,263.888,434.145,247.624Z" transform="translate(-393.632 -163.511)" fill="#bceca4"/>
            <path id="Path_88181" data-name="Path 88181" d="M440.268,172.624c-9.839,17.472-27.383,64.776-26.722,100.628" transform="translate(-397.021 -165.063)" fill="none" stroke="#7ec682" stroke-linecap="round" stroke-linejoin="round" stroke-width="1.868"/>
          </g>
        </g>
        <g id="Group_174979" data-name="Group 174979" transform="translate(37.567 78.402)">
          <path id="Path_88182" data-name="Path 88182" d="M85.545,163.511H72.259v91.136" transform="translate(-72.259 -141.68)" fill="none" stroke="#ff8526" stroke-miterlimit="10" stroke-width="0.934" stroke-dasharray="3.736"/>
          <line id="Line_432" data-name="Line 432" x2="13.335" transform="translate(159.683 175.257)" fill="none" stroke="#ff8526" stroke-miterlimit="10" stroke-width="0.934" stroke-dasharray="3.736"/>
          <line id="Line_433" data-name="Line 433" y1="13.288" transform="translate(232.949 44.562)" fill="none" stroke="#ff8526" stroke-miterlimit="10" stroke-width="0.934" stroke-dasharray="3.736"/>
          <line id="Line_434" data-name="Line 434" x1="16.408" transform="translate(148.909)" fill="none" stroke="#ff8526" stroke-miterlimit="10" stroke-width="0.934" stroke-dasharray="3.736"/>
        </g>
        <g id="Group_174981" data-name="Group 174981" transform="translate(215.285 301.917)">
          <g id="Group_174980" data-name="Group 174980">
            <rect id="Rectangle_148813" data-name="Rectangle 148813" width="109.687" height="20.109" rx="10.054" transform="translate(1.582 0.182)" fill="#f8e382"/>
            <path id="Path_88183" data-name="Path 88183" d="M357.445,415.254s9.126,2.026,8.122,11.425-13.14,8.683-13.14,8.683l18.341.012s7.391-2.026,7.208-10.06-8.669-10.061-8.669-10.061Z" transform="translate(-298.696 -415.072)" fill="#335b98"/>
            <path id="Path_88184" data-name="Path 88184" d="M290.7,433.384a9.1,9.1,0,0,0,8.133,5.066h91.547a9.085,9.085,0,0,0,7.668-4.241Z" transform="translate(-288.183 -418.16)" fill="#f8e382" style="mix-blend-mode: multiply;isolation: isolate"/>
            <circle id="Ellipse_3533" data-name="Ellipse 3533" cx="10.145" cy="10.145" r="10.145" fill="#f7db5c"/>
          </g>
          <path id="Path_88185" data-name="Path 88185" d="M300.411,418.437a7.1,7.1,0,0,1,5.07,7.364,7.973,7.973,0,0,1-6.1,6.767,5.971,5.971,0,0,1-2.653.052,5.732,5.732,0,0,1-2.775-1.652,6.468,6.468,0,0,1-1.519-6.691,5.058,5.058,0,0,1,5.867-3.033,4.384,4.384,0,0,1,2.445,6.514,1.472,1.472,0,0,1-1.132.812" transform="translate(-288.412 -415.614)" fill="none" stroke="#f8e382" stroke-linecap="round" stroke-linejoin="round" stroke-width="1"/>
        </g>
        <g id="Group_174992" data-name="Group 174992" transform="translate(50.852 44.013)">
          <g id="Group_174991" data-name="Group 174991">
            <rect id="Rectangle_148814" data-name="Rectangle 148814" width="135.623" height="135.623" rx="9.499" fill="#ff8526"/>
            <rect id="Rectangle_148815" data-name="Rectangle 148815" width="125.26" height="125.26" rx="7.633" transform="translate(5.181 5.181)" fill="#fee8de"/>
            <path id="Path_88186" data-name="Path 88186" d="M94.517,112.979v-5.069A5.916,5.916,0,0,1,100.433,102H213.862a5.915,5.915,0,0,1,5.916,5.916v5.069Z" transform="translate(-89.336 -96.813)" fill="#fdfeff"/>
            <g id="Group_174982" data-name="Group 174982" transform="translate(10.575 8.978)">
              <circle id="Ellipse_3534" data-name="Ellipse 3534" cx="1.696" cy="1.696" r="1.696" transform="translate(11.59)" fill="#ff8526"/>
              <circle id="Ellipse_3535" data-name="Ellipse 3535" cx="1.696" cy="1.696" r="1.696" transform="translate(5.936)" fill="#ff8526"/>
              <circle id="Ellipse_3536" data-name="Ellipse 3536" cx="1.696" cy="1.696" r="1.696" fill="#ff8526"/>
            </g>
            <g id="Group_174990" data-name="Group 174990" transform="translate(5.181 5.181)">
              <g id="Group_174989" data-name="Group 174989" clip-path="url(#clip-path)">
                <g id="Group_174988" data-name="Group 174988" transform="translate(21.794 15.63)">
                  <path id="Path_88187" data-name="Path 88187" d="M176.47,145.159c2.212,2.326,2.95,5.695,3.443,8.866s.632,6.406,1.408,9.521a23.949,23.949,0,0,0,4.581,9.216c1.322,1.639,2.86,3.1,4.065,4.83a8.656,8.656,0,0,1,1.8,5.9,7.67,7.67,0,0,1-3.155,4.963,17.7,17.7,0,0,1-5.451,2.533c-4.718,1.47-9.821,2.267-14.59.974a22.4,22.4,0,0,1-4.911-2.048c-4.707-2.588-8.834-6.564-10.658-11.616a34.62,34.62,0,0,1-1.269-5.054A70.043,70.043,0,0,1,150.325,164a35.15,35.15,0,0,1,3.531-17.612,15.494,15.494,0,0,1,15.629-5.7S172.658,141.151,176.47,145.159Z" transform="translate(-125.805 -124.158)" fill="#33332a"/>
                  <g id="Group_174983" data-name="Group 174983" transform="translate(0 59.343)">
                    <path id="Path_88188" data-name="Path 88188" d="M159.811,192.538l-8.766-.052a16.291,16.291,0,0,0-5.651.538,14.923,14.923,0,0,0-5.968,4.574,40.954,40.954,0,0,0-4.031,6.071c-6.818,11.721-11.567,35.978-14.611,51.365l79.3-.113c-3.043-15.387-7.792-39.644-14.61-51.365a40.961,40.961,0,0,0-4.031-6.071,14.913,14.913,0,0,0-5.967-4.574,16.315,16.315,0,0,0-5.652-.538l-8.766.052" transform="translate(-120.785 -192.358)" fill="rgba(252,79,25,0.99)"/>
                  </g>
                  <path id="Path_88190" data-name="Path 88190" d="M142.632,139.4l17.74,9.33a3.06,3.06,0,0,0,3.164-.191l19.156-13.237a3.059,3.059,0,0,0-.415-5.275l-18.531-8.9a3.061,3.061,0,0,0-3.074.248l-18.365,12.8A3.06,3.06,0,0,0,142.632,139.4Z" transform="translate(-124.227 -120.833)" fill="#335b98"/>
                  <path id="Path_88191" data-name="Path 88191" d="M146.831,137.24c-.582.077-.894.713-1.071,1.272-1.052,3.315-.957,6.876-.741,10.347" transform="translate(-124.889 -123.627)" fill="none" stroke="#fc511b" stroke-miterlimit="10" stroke-width="1.102"/>
                  <path id="Path_88192" data-name="Path 88192" d="M145.573,157.241a17.817,17.817,0,0,0-.09-4.864c-.129-.82-.609-1.443-1.109-.455a4.928,4.928,0,0,0-.394,2.418,13.228,13.228,0,0,0,.565,3.34" transform="translate(-124.734 -126.042)" fill="none" stroke="#fc511b" stroke-linecap="round" stroke-linejoin="round" stroke-width="1.102"/>
                  <path id="Path_88193" data-name="Path 88193" d="M144.98,151.7c.082,1.462.1,3.626.157,5.088" transform="translate(-124.906 -126.091)" fill="none" stroke="#fc511b" stroke-linecap="round" stroke-linejoin="round" stroke-width="1.102"/>
                  <path id="Path_88194" data-name="Path 88194" d="M172.128,142.72l-8.591,5.936a3.06,3.06,0,0,1-3.164.191l-17.74-9.33a3.06,3.06,0,0,1-.325-5.218l18.365-12.8a12.67,12.67,0,0,0,.29,6.981,23.011,23.011,0,0,0,11.127,14.017" transform="translate(-124.227 -120.946)" fill="#1b3c89"/>
                  <path id="Path_88195" data-name="Path 88195" d="M176.94,192.36s1.126,10.07-8.618,11.153c-13.434,1.493-12.513-11.037-12.513-11.037Z" transform="translate(-126.748 -133.015)" fill="#fff"/>
                  <path id="Path_88196" data-name="Path 88196" d="M172.925,181.369l1.443,9.173a11.64,11.64,0,0,1-7.6,2.618,10.529,10.529,0,0,1-7.266-2.6l1.679-9.593Z" transform="translate(-127.379 -131.075)" fill="#faa990"/>
                  <path id="Path_88198" data-name="Path 88198" d="M178.622,165.187s-.666,14.719-13.059,14.433-12.394-15.291-12.394-15.291-1.131-16,10.628-17.464C176.791,145.248,178.915,155.259,178.622,165.187Z" transform="translate(-126.296 -125.237)" fill="#faa990"/>
                  <line id="Line_435" data-name="Line 435" y1="2.043" x2="1.814" transform="translate(50.601 33.498)" fill="none" stroke="#33332a" stroke-linecap="round" stroke-linejoin="round" stroke-width="0.739"/>
                  <path id="Path_88205" data-name="Path 88205" d="M179.364,157.965a4.371,4.371,0,0,1-3.365-.649c-4-2.014-7.992-4.289-10.87-7.715a51.166,51.166,0,0,0,1.478,5.919,5.156,5.156,0,0,1-3.49-1.033,40.29,40.29,0,0,1-4.139-2.886c-.986,2.959-5.059,4.153-5.736,7.2-.066.3-.2.69-.5.66-.227-.022-.339-.283-.4-.5-.963-3.747-.079-10.214,2.2-13.34,3.076-4.216,16.87-9.884,23.141,1.192,1.505,2.66,1.553,10.542,1.68,11.158" transform="translate(-126.094 -124.159)" fill="#33332a"/>
                  <g id="Group_174985" data-name="Group 174985" transform="translate(22.64 32.379)">
                    <path id="Path_88206" data-name="Path 88206" d="M152.747,166.115a1.893,1.893,0,0,1-2.063.6,3.053,3.053,0,0,1-1.35-1.133,5.309,5.309,0,0,1-1.133-4.408,1.912,1.912,0,0,1,.57-1,1.731,1.731,0,0,1,1.84-.1,11.188,11.188,0,0,1,2.136,2.02Z" transform="translate(-148.073 -159.859)" fill="#faa990"/>
                    <g id="Group_174984" data-name="Group 174984" transform="translate(1.504 1.608)">
                      <path id="Path_88207" data-name="Path 88207" d="M149.885,161.8a5.1,5.1,0,0,1,2.856,2.964" transform="translate(-149.885 -161.797)" fill="none" stroke="#dc715c" stroke-linecap="round" stroke-linejoin="round" stroke-width="0.47"/>
                      <path id="Path_88208" data-name="Path 88208" d="M152.038,163.522a3.385,3.385,0,0,0-.677,2.669" transform="translate(-150.128 -162.091)" fill="none" stroke="#dc715c" stroke-linecap="round" stroke-linejoin="round" stroke-width="0.47"/>
                    </g>
                  </g>
                  <g id="Group_174987" data-name="Group 174987" transform="translate(52.078 31.992)">
                    <path id="Path_88209" data-name="Path 88209" d="M183.628,165.649a1.894,1.894,0,0,0,2.063.6,3.058,3.058,0,0,0,1.35-1.133,5.312,5.312,0,0,0,1.133-4.409,1.913,1.913,0,0,0-.57-1,1.733,1.733,0,0,0-1.84-.1,9.715,9.715,0,0,0-2.209,2.119Z" transform="translate(-183.554 -159.393)" fill="#faa990"/>
                    <g id="Group_174986" data-name="Group 174986" transform="translate(0.388 1.608)">
                      <path id="Path_88210" data-name="Path 88210" d="M186.878,161.331a5.1,5.1,0,0,0-2.856,2.964" transform="translate(-184.022 -161.331)" fill="none" stroke="#dc715c" stroke-linecap="round" stroke-linejoin="round" stroke-width="0.47"/>
                      <path id="Path_88211" data-name="Path 88211" d="M185.162,163.055a3.387,3.387,0,0,1,.677,2.67" transform="translate(-184.216 -161.625)" fill="none" stroke="#dc715c" stroke-linecap="round" stroke-linejoin="round" stroke-width="0.47"/>
                    </g>
                  </g>
                  <line id="Line_436" data-name="Line 436" x1="1.814" y1="2.043" transform="translate(26.746 33.498)" fill="none" stroke="#33332a" stroke-linecap="round" stroke-linejoin="round" stroke-width="0.739"/>
                  <path id="Path_88212" data-name="Path 88212" d="M177.422,136.826l1.214,10.534s-5.3-2.492-14.1-1.2S152.3,149.75,152.3,149.75l-.873-10.5S162.027,131.6,177.422,136.826Z" transform="translate(-126.004 -123.246)" fill="#142b70"/>
                </g>
              </g>
            </g>
          </g>
          <path id="Path_88214" data-name="Path 88214" d="M229.164,126.323l-2.713,1.357v-1.625h-7.838v6.227h7.838v-1.688l2.713,1.151Z" transform="translate(-110.472 -100.911)" fill="#ff8526"/>
        </g>
        <g id="Group_175003" data-name="Group 175003" transform="translate(202.884 33.84)">
          <g id="Group_175002" data-name="Group 175002">
            <rect id="Rectangle_148817" data-name="Rectangle 148817" width="135.264" height="89.124" rx="6.574" fill="#ff8526"/>
            <path id="Rectangle_148818" data-name="Rectangle 148818" d="M3.321,0H124.4a3.321,3.321,0,0,1,3.321,3.321V79.09A3.321,3.321,0,0,1,124.4,82.41H3.32A3.32,3.32,0,0,1,0,79.09V3.321A3.321,3.321,0,0,1,3.321,0Z" transform="translate(3.774 3.357)" fill="#fee8de"/>
            <path id="Path_88215" data-name="Path 88215" d="M276.061,93.705v-3.6a2.574,2.574,0,0,1,2.574-2.574H401.2a2.574,2.574,0,0,1,2.574,2.574v3.6Z" transform="translate(-272.287 -84.178)" fill="#fff"/>
            <g id="Group_174993" data-name="Group 174993" transform="translate(8.172 5.693)">
              <path id="Path_88216" data-name="Path 88216" d="M289.026,91.1a.748.748,0,1,1-.748-.749A.749.749,0,0,1,289.026,91.1Z" transform="translate(-282.412 -90.351)" fill="#ff8526"/>
              <path id="Path_88217" data-name="Path 88217" d="M286.018,91.1a.749.749,0,1,1-.748-.749A.749.749,0,0,1,286.018,91.1Z" transform="translate(-281.9 -90.351)" fill="#ff8526"/>
              <path id="Path_88218" data-name="Path 88218" d="M282.86,91.1a.749.749,0,1,1-.749-.749A.749.749,0,0,1,282.86,91.1Z" transform="translate(-281.362 -90.351)" fill="#ff8526"/>
            </g>
            <g id="Group_175001" data-name="Group 175001" transform="translate(3.774 3.357)">
              <g id="Group_175000" data-name="Group 175000" clip-path="url(#clip-path-2)">
                <g id="Group_174999" data-name="Group 174999" transform="translate(37.526 9.312)">
                  <path id="Path_88219" data-name="Path 88219" d="M336.44,111.377c-.447.06-.687.548-.824.978a21.814,21.814,0,0,0-.57,7.958" transform="translate(-323.616 -100.907)" fill="none" stroke="#fea45b" stroke-miterlimit="10" stroke-width="0.847"/>
                  <path id="Path_88220" data-name="Path 88220" d="M335.473,126.759a13.708,13.708,0,0,0-.07-3.74c-.1-.631-.468-1.109-.853-.35a3.777,3.777,0,0,0-.3,1.858,10.193,10.193,0,0,0,.434,2.57" transform="translate(-323.497 -102.764)" fill="none" stroke="#fea45b" stroke-linecap="round" stroke-linejoin="round" stroke-width="0.847"/>
                  <path id="Path_88221" data-name="Path 88221" d="M335.017,122.5c.063,1.124.08,2.789.12,3.914" transform="translate(-323.629 -102.802)" fill="none" stroke="#fea45b" stroke-linecap="round" stroke-linejoin="round" stroke-width="0.847"/>
                  <path id="Path_88222" data-name="Path 88222" d="M333.211,113.042l13.644,7.175a2.353,2.353,0,0,0,2.433-.147l14.733-10.18a2.352,2.352,0,0,0-.319-4.056L349.449,98.99a2.351,2.351,0,0,0-2.364.191l-14.125,9.847A2.353,2.353,0,0,0,333.211,113.042Z" transform="translate(-323.107 -98.758)" fill="#335b98"/>
                  <path id="Path_88223" data-name="Path 88223" d="M355.9,115.591l-6.608,4.566a2.353,2.353,0,0,1-2.433.147l-13.644-7.175a2.353,2.353,0,0,1-.25-4.013l14.125-9.847a9.736,9.736,0,0,0,.223,5.369,17.689,17.689,0,0,0,8.557,10.779" transform="translate(-323.107 -98.845)" fill="#1b3c89"/>
                  <path id="Path_88224" data-name="Path 88224" d="M385.056,146.591a8.412,8.412,0,0,1-2.176-3.351.84.84,0,0,1-.036-.645.63.63,0,0,1,.845-.171,2.876,2.876,0,0,1,.694.657,1.075,1.075,0,0,0,.826.421c.59-1.459-.851-3.2-.175-4.622.1-.215.295-.429.531-.4.29.032.411.379.469.665q.238,1.179.477,2.355a5.2,5.2,0,0,1,.434-2.5c.064-.144.16-.3.317-.32.229-.024.353.259.391.486a7.574,7.574,0,0,1-.026,2.7,3.237,3.237,0,0,1,1.353-2.2.523.523,0,0,1,.464-.043c.192.1.221.361.208.577a4.372,4.372,0,0,1-.954,2.486,3.889,3.889,0,0,1,2.02-1.525.614.614,0,0,1,.29-.04c.387.071.332.642.175,1l-1.212,2.794a4.815,4.815,0,0,1-1.2,1.888Z" transform="translate(-331.766 -105.523)" fill="#faa990"/>
                  <g id="Group_174994" data-name="Group 174994" transform="translate(0 39.955)">
                    <path id="Path_88225" data-name="Path 88225" d="M321.291,189.832c2.034-10.282,5.207-26.49,9.763-34.322a27.44,27.44,0,0,1,2.693-4.056,9.966,9.966,0,0,1,3.987-3.056,12.815,12.815,0,0,1,3.768-.391l12.462.105a9.88,9.88,0,0,1,7.622,2.509,20.206,20.206,0,0,1,4.792,6.67,43.269,43.269,0,0,1,1.782,4.2l1.8,4.64c.392.971,1.556-.6,1.938-15.294.025-.971.072-1.337.028-3.919a68.219,68.219,0,0,0,9.195,1.077c.323,9.776.172,21.224-4.414,28.864-.634,1.056-7.309,9.816-14.7-2.949,0,0,3.206,13.423,3.437,16.1Z" transform="translate(-321.291 -146.915)" fill="#fea45b"/>
                  </g>
                  <path id="Path_88226" data-name="Path 88226" d="M358.859,148.28s.707,8.424-5.8,9.343c-8.977,1.266-8.366-9.343-8.366-9.343Z" transform="translate(-325.275 -107.193)" fill="#fff"/>
                  <path id="Path_88227" data-name="Path 88227" d="M356.114,140.822l1.04,6.613s-2.038,3.282-5.233,3.267-4.859-3.267-4.859-3.267l1.2-6.881Z" transform="translate(-325.68 -105.877)" fill="#faa990"/>
                  <path id="Path_88229" data-name="Path 88229" d="M357.953,145.805l-4.723,4.672,2.361,2.721,4.723-5.339Z" transform="translate(-326.731 -106.771)" fill="#fff"/>
                  <path id="Path_88230" data-name="Path 88230" d="M353.23,150.9l2.361,2.721,4.723-5.339" transform="translate(-326.731 -107.193)" fill="none" stroke="#33332a" stroke-miterlimit="10" stroke-width="0.433"/>
                  <path id="Path_88231" data-name="Path 88231" d="M347.053,145.805l4.723,4.672-2.361,2.721-4.723-5.339Z" transform="translate(-325.277 -106.771)" fill="#fff"/>
                  <path id="Path_88232" data-name="Path 88232" d="M354.721,153.622l-1.227,1.628h-1.5l-1.152-1.531,1.982-2.284Z" transform="translate(-326.324 -107.73)" fill="#33332a"/>
                  <path id="Path_88233" data-name="Path 88233" d="M351.483,158.943l.619-2.91h1.5l.592,2.915a3.26,3.26,0,0,1-1.356.122A4.507,4.507,0,0,1,351.483,158.943Z" transform="translate(-326.433 -108.513)" fill="#33332a"/>
                  <path id="Path_88234" data-name="Path 88234" d="M360.224,130.285s-.467,9.632-9.165,9.445-8.7-10.007-8.7-10.007-.793-10.471,7.459-11.428C358.939,117.236,360.43,123.787,360.224,130.285Z" transform="translate(-324.876 -102.066)" fill="#faa990"/>
                  <path id="Path_88240" data-name="Path 88240" d="M360.4,125.785c-.454.694-2.458-3.118-2.508-3.861a5.443,5.443,0,0,1-5.391-2.811,3.6,3.6,0,0,1-1.752,1.5,8.589,8.589,0,0,1-5.423.641,7.21,7.21,0,0,1-3.222,4.592.543.543,0,0,1-.877-.29,6.453,6.453,0,0,1-.4-4.435,10.89,10.89,0,0,1,2.068-4.014,7.1,7.1,0,0,1,2.348-2.1,4.532,4.532,0,0,1,3-.353,4.84,4.84,0,0,1,2.125-1.535,5.535,5.535,0,0,1,3.495-.437,2.892,2.892,0,0,1,2.234,2.492c.66-.564.686-.395,1.544-.262,3.586.556,3.718,7.449,3.749,8.369a4.558,4.558,0,0,1-.111,1.464,1.537,1.537,0,0,1-.943,1.059" transform="translate(-324.582 -101.109)" fill="#33332a"/>
                  <g id="Group_174996" data-name="Group 174996" transform="translate(14.635 23.264)">
                    <path id="Path_88241" data-name="Path 88241" d="M341.989,130.892a1.24,1.24,0,0,1-1.351.392,2,2,0,0,1-.883-.742,3.471,3.471,0,0,1-.741-2.885,1.249,1.249,0,0,1,.373-.655,1.135,1.135,0,0,1,1.2-.065,7.36,7.36,0,0,1,1.4,1.323Z" transform="translate(-338.931 -126.797)" fill="#faa990"/>
                  </g>
                  <g id="Group_174998" data-name="Group 174998" transform="translate(35.12 22.976)">
                    <path id="Path_88244" data-name="Path 88244" d="M363.62,130.546a1.239,1.239,0,0,0,1.35.392,2,2,0,0,0,.884-.741,3.476,3.476,0,0,0,.741-2.885,1.248,1.248,0,0,0-.373-.655,1.135,1.135,0,0,0-1.2-.065,7.361,7.361,0,0,0-1.4,1.323Z" transform="translate(-363.62 -126.451)" fill="#faa990"/>
                  </g>
                  <path id="Path_88249" data-name="Path 88249" d="M351.776,150.9l-2.361,2.721-4.723-5.339" transform="translate(-325.277 -107.193)" fill="none" stroke="#33332a" stroke-miterlimit="10" stroke-width="0.433"/>
                  <path id="Path_88250" data-name="Path 88250" d="M321.291,198.642" transform="translate(-321.291 -115.77)" fill="#142b70"/>
                  <path id="Path_88251" data-name="Path 88251" d="M359.967,111.059l.933,8.1s-4.08-1.916-10.841-.92S340.647,121,340.647,121l-.67-8.074S348.128,107.043,359.967,111.059Z" transform="translate(-324.474 -100.614)" fill="#142b70"/>
                </g>
              </g>
            </g>
          </g>
          <path id="Path_88253" data-name="Path 88253" d="M417.581,103.086l-2.713,1.357v-1.625H407.03v6.227h7.838v-1.688l2.713,1.151Z" transform="translate(-294.594 -86.781)" fill="#ff8526"/>
        </g>
        <g id="Group_175014" data-name="Group 175014" transform="translate(25.906 191.368)">
          <g id="Group_175013" data-name="Group 175013">
            <rect id="Rectangle_148820" data-name="Rectangle 148820" width="171.344" height="130.805" rx="6.842" fill="#ff8526"/>
            <rect id="Rectangle_148821" data-name="Rectangle 148821" width="162.171" height="120.892" rx="5.507" transform="translate(4.303 4.428)" fill="#fee8de"/>
            <path id="Path_88254" data-name="Path 88254" d="M63.391,289.483V282.96a4.268,4.268,0,0,1,4.268-4.268H221.294a4.268,4.268,0,0,1,4.268,4.268v6.523Z" transform="translate(-59.089 -274.264)" fill="#fff"/>
            <g id="Group_175004" data-name="Group 175004" transform="translate(9.964 8.128)">
              <path id="Path_88255" data-name="Path 88255" d="M87.576,284.847a1.7,1.7,0,1,1-1.7-1.7A1.7,1.7,0,0,1,87.576,284.847Z" transform="translate(-72.594 -283.151)" fill="#ff8526"/>
              <circle id="Ellipse_3539" data-name="Ellipse 3539" cx="1.696" cy="1.696" r="1.696" transform="translate(5.936)" fill="#ff8526"/>
              <circle id="Ellipse_3540" data-name="Ellipse 3540" cx="1.696" cy="1.696" r="1.696" fill="#ff8526"/>
            </g>
            <g id="Group_175012" data-name="Group 175012" transform="translate(4.303 4.428)">
              <g id="Group_175011" data-name="Group 175011" clip-path="url(#clip-path-3)">
                <g id="Group_175010" data-name="Group 175010" transform="translate(12.216 12.625)">
                  <path id="Path_88256" data-name="Path 88256" d="M145.748,328.456c-.718,3.9-1.621,8.12-4.669,10.651-1.512,1.256-3.408,1.955-5.012,3.091a9.49,9.49,0,0,0-3.761,5.266,7.411,7.411,0,0,0,1.167,6.275,16.469,16.469,0,0,1,2.2,2.763c.729,1.56.28,3.385.374,5.1.24,4.352,3.962,7.707,7.813,9.746,3.456,1.829,7.556,3.03,11.264,1.79,2.162-.723,4.261-2.26,6.489-1.777a10.661,10.661,0,0,1,2.408,1.052,13.2,13.2,0,0,0,18.784-14.6,39.884,39.884,0,0,1-1.132-4.765,26.172,26.172,0,0,1,.634-5.811,20.543,20.543,0,0,0-4.016-15.1,16.971,16.971,0,0,1-1.147-1.566s-2-10.646-15.665-11.148S145.748,328.456,145.748,328.456Z" transform="translate(-87.303 -298.251)" fill="#33332a"/>
                  <path id="Path_88257" data-name="Path 88257" d="M90.021,341.194a12.381,12.381,0,0,0,.986-5.906,1.255,1.255,0,0,0-.346-.909.973.973,0,0,0-1.288.27,4.234,4.234,0,0,0-.568,1.317,1.6,1.6,0,0,1-.9,1.072c-1.722-1.654-.776-4.908-2.593-6.461a.922.922,0,0,0-.991-.237c-.385.216-.342.766-.247,1.193l.779,3.523a7.845,7.845,0,0,0-2.142-3.179.721.721,0,0,0-.639-.251c-.336.1-.334.567-.25.9a11.33,11.33,0,0,0,1.694,3.7c-.86-1.03-1.887-2.146-3.24-2.212a.8.8,0,0,0-.675.217c-.206.253-.086.628.063.918A6.655,6.655,0,0,0,82.53,338a6.055,6.055,0,0,0-3.762-.893.938.938,0,0,0-.431.119c-.5.327-.069,1.08.371,1.483l3.411,3.119a7.407,7.407,0,0,0,2.839,1.88Z" transform="translate(-78.114 -300.102)" fill="#faa990"/>
                  <path id="Path_88258" data-name="Path 88258" d="M193.623,314.319c.723.1,1.111.887,1.332,1.581,1.309,4.124,1.191,8.553.923,12.872" transform="translate(-97.788 -297.385)" fill="none" stroke="#fea45b" stroke-miterlimit="10" stroke-width="1.37"/>
                  <path id="Path_88259" data-name="Path 88259" d="M195.244,339.2a22.221,22.221,0,0,1,.112-6.05c.16-1.02.758-1.795,1.381-.567a6.13,6.13,0,0,1,.49,3.007,16.482,16.482,0,0,1-.7,4.157" transform="translate(-98.037 -300.388)" fill="none" stroke="#fea45b" stroke-linecap="round" stroke-linejoin="round" stroke-width="1.37"/>
                  <path id="Path_88260" data-name="Path 88260" d="M196.382,332.31c-.1,1.818-.129,4.51-.194,6.33" transform="translate(-98.224 -300.449)" fill="none" stroke="#fea45b" stroke-linecap="round" stroke-linejoin="round" stroke-width="1.37"/>
                  <path id="Path_88261" data-name="Path 88261" d="M188.359,317.011,166.29,328.617a3.8,3.8,0,0,1-3.934-.237l-23.83-16.466a3.806,3.806,0,0,1,.516-6.562l23.052-11.068a3.806,3.806,0,0,1,3.824.309l22.846,15.928A3.806,3.806,0,0,1,188.359,317.011Z" transform="translate(-88.124 -293.909)" fill="#335b98"/>
                  <path id="Path_88262" data-name="Path 88262" d="M154.7,321.135l10.688,7.385a3.8,3.8,0,0,0,3.934.237l22.069-11.606a3.806,3.806,0,0,0,.4-6.491l-22.846-15.928c.865,2.785.406,5.87-.361,8.683a28.62,28.62,0,0,1-13.842,17.436" transform="translate(-91.159 -294.049)" fill="#1b3c89"/>
                  <g id="Group_175005" data-name="Group 175005" transform="translate(4.915 36.228)">
                    <path id="Path_88263" data-name="Path 88263" d="M93.659,337.574a67.09,67.09,0,0,0,17.676,20.181c7.816,5.925,17.344,11.571,26.993,9.813a21.493,21.493,0,0,1,2.84-.239c.9-.021,1.948.044,3.123.032,7.358-.071,18.957-.066,18.957-.066a17.9,17.9,0,0,1,6.221.645,16.464,16.464,0,0,1,6.584,5.046,45.307,45.307,0,0,1,4.448,6.7c7.522,12.933,12.761,39.7,16.12,56.676l-72.916.283c.38-4.416,7.281-42.03,7.281-42.03s-29.319-9.3-46.948-47.911Z" transform="translate(-84.038 -337.574)" fill="#fea45b"/>
                  </g>
                  <path id="Path_88264" data-name="Path 88264" d="M152.887,373.426s-1.17,11.309,9.58,12.541c14.823,1.7,13.828-12.6,13.828-12.6Z" transform="translate(-90.843 -307.443)" fill="#fff"/>
                  <path id="Path_88265" data-name="Path 88265" d="M159.148,362.085l-1.7,9.338a11.045,11.045,0,0,0,7.674,2.722,12.748,12.748,0,0,0,8.013-2.746l-1.7-9.733Z" transform="translate(-91.627 -305.449)" fill="#faa990"/>
                  <path id="Path_88267" data-name="Path 88267" d="M149.672,343.412s1.431,17.308,14.88,16.348c13.043-.93,14.041-15.772,14.041-15.772s1.284-16.936-12.064-18.485C151.78,323.79,149.34,332.9,149.672,343.412Z" transform="translate(-90.297 -299.254)" fill="#faa990"/>
                  <path id="Path_88268" data-name="Path 88268" d="M219.657,457.149" transform="translate(-102.222 -321.712)" fill="#142b70"/>
                  <path id="Path_88269" data-name="Path 88269" d="M148.09,329.691a11.013,11.013,0,0,1,2.851-4.9,13.784,13.784,0,0,1,7.509-4.051,29.33,29.33,0,0,1,8.641-.252,12.429,12.429,0,0,1,8.785,3.738,17.142,17.142,0,0,1,3.295,3.542,9.917,9.917,0,0,1-.077,10.589,1.014,1.014,0,0,1-.442.426c-.3.112-.479-.225-.748-.39a25.249,25.249,0,0,1-6.36-5.224c-1.529-1.844-2.85-4.167-2.4-6.521-2.3,4.15-7.484,6.656-11.776,8.678a28.432,28.432,0,0,1-8.662,2.7S146.633,336.785,148.09,329.691Z" transform="translate(-89.944 -298.403)" fill="#33332a"/>
                  <g id="Group_175007" data-name="Group 175007" transform="translate(87.959 37.628)">
                    <path id="Path_88270" data-name="Path 88270" d="M184.13,345.883a2,2,0,0,0,2.184.635,3.234,3.234,0,0,0,1.43-1.2,5.622,5.622,0,0,0,1.2-4.666,2.026,2.026,0,0,0-.6-1.059,1.836,1.836,0,0,0-1.948-.1,11.876,11.876,0,0,0-2.26,2.139Z" transform="translate(-184.13 -339.261)" fill="#faa990"/>
                    <g id="Group_175006" data-name="Group 175006" transform="translate(0.332 1.702)">
                      <path id="Path_88271" data-name="Path 88271" d="M187.553,341.312a5.407,5.407,0,0,0-3.023,3.138" transform="translate(-184.53 -341.312)" fill="none" stroke="#dc715c" stroke-linecap="round" stroke-linejoin="round" stroke-width="0.498"/>
                      <path id="Path_88272" data-name="Path 88272" d="M185.737,343.138a3.577,3.577,0,0,1,.717,2.825" transform="translate(-184.736 -341.623)" fill="none" stroke="#dc715c" stroke-linecap="round" stroke-linejoin="round" stroke-width="0.498"/>
                    </g>
                  </g>
                  <g id="Group_175009" data-name="Group 175009" transform="translate(54.826 37.164)">
                    <path id="Path_88273" data-name="Path 88273" d="M149.143,345.324a2,2,0,0,1-2.185.635,3.232,3.232,0,0,1-1.429-1.2,5.622,5.622,0,0,1-1.2-4.666,2.027,2.027,0,0,1,.6-1.06,1.836,1.836,0,0,1,1.949-.1,11.9,11.9,0,0,1,2.26,2.139Z" transform="translate(-144.196 -338.701)" fill="#faa990"/>
                    <g id="Group_175008" data-name="Group 175008" transform="translate(1.592 1.702)">
                      <path id="Path_88274" data-name="Path 88274" d="M146.114,340.753a5.4,5.4,0,0,1,3.023,3.137" transform="translate(-146.114 -340.753)" fill="none" stroke="#dc715c" stroke-linecap="round" stroke-linejoin="round" stroke-width="0.498"/>
                      <path id="Path_88275" data-name="Path 88275" d="M148.392,342.578a3.586,3.586,0,0,0-.717,2.826" transform="translate(-146.371 -341.064)" fill="none" stroke="#dc715c" stroke-linecap="round" stroke-linejoin="round" stroke-width="0.498"/>
                    </g>
                  </g>
                  <path id="Path_88276" data-name="Path 88276" d="M150.2,313.459l-1.516,13.391s5.7-3.091,16.64-1.481,15.381,4.376,15.381,4.376l.928-12.976S169.354,306.963,150.2,313.459Z" transform="translate(-90.134 -296.86)" fill="#142b70"/>
                  <path id="Path_88281" data-name="Path 88281" d="M159.025,364.913a11.61,11.61,0,0,0,13.126-.155S165.88,372.593,159.025,364.913Z" transform="translate(-91.895 -305.976)" fill="#33332a"/>
                </g>
              </g>
            </g>
          </g>
          <path id="Path_88282" data-name="Path 88282" d="M241.882,402.833l-2.714,1.357v-1.625h-7.838v6.227h7.838V407.1l2.714,1.151Z" transform="translate(-87.692 -295.362)" fill="#ff8526"/>
        </g>
        <g id="Group_175025" data-name="Group 175025" transform="translate(210.585 136.252)">
          <g id="Group_175024" data-name="Group 175024">
            <path id="Path_88284" data-name="Path 88284" d="M280.8,357V212.6a5.677,5.677,0,0,1,5.678-5.677H394.019A5.676,5.676,0,0,1,399.7,212.6V357a5.676,5.676,0,0,1-5.677,5.677H286.472A5.678,5.678,0,0,1,280.8,357Z" transform="translate(-280.795 -206.924)" fill="#ff8526"/>
            <rect id="Rectangle_148823" data-name="Rectangle 148823" width="147.413" height="109.89" rx="5.507" transform="translate(114.876 3.911) rotate(90)" fill="#fee8de"/>
            <path id="Path_88285" data-name="Path 88285" d="M286.8,220.244v-3.874a4.733,4.733,0,0,1,4.733-4.732H391.962a4.733,4.733,0,0,1,4.732,4.732v3.874Z" transform="translate(-281.818 -207.727)" fill="#fff"/>
            <g id="Group_175022" data-name="Group 175022" transform="translate(4.986 3.911)">
              <g id="Group_175021" data-name="Group 175021" clip-path="url(#clip-path-4)">
                <g id="Group_175020" data-name="Group 175020" transform="translate(12.01 14.934)">
                  <g id="Group_175015" data-name="Group 175015" transform="translate(0 66.569)">
                    <path id="Path_88286" data-name="Path 88286" d="M344.453,310.07l-9.7-.057a18.011,18.011,0,0,0-6.252.595,16.507,16.507,0,0,0-6.6,5.06,45.264,45.264,0,0,0-4.46,6.715c-7.542,12.967-12.8,39.8-16.163,56.823L389,379.082c-3.367-17.023-8.62-43.856-16.162-56.823a45.335,45.335,0,0,0-4.46-6.716,16.505,16.505,0,0,0-6.6-5.059,18.033,18.033,0,0,0-6.252-.6l-9.7.058" transform="translate(-301.28 -309.871)" fill="rgba(252,79,25,0.99)"/>
                  </g>
                  <path id="Path_88287" data-name="Path 88287" d="M363.327,309.817s1.171,13.946-9.608,15.467c-14.862,2.1-13.85-15.467-13.85-15.467Z" transform="translate(-307.85 -243.293)" fill="#fff"/>
                  <path id="Path_88289" data-name="Path 88289" d="M358.96,297.714l1.6,10.147s-3.166,4.318-8.455,4.294a10.027,10.027,0,0,1-7.989-4.271l1.858-10.612Z" transform="translate(-308.575 -241.156)" fill="#faa990"/>
                  <path id="Path_88292" data-name="Path 88292" d="M326.65,249.1c-.741.1-1.138.908-1.363,1.619-1.34,4.221-1.219,8.755-.944,13.175" transform="translate(-305.178 -232.951)" fill="#fc511b" stroke="#fc511b" stroke-miterlimit="10" stroke-width="1.403"/>
                  <path id="Path_88293" data-name="Path 88293" d="M325.049,274.563a22.7,22.7,0,0,0-.115-6.193c-.163-1.043-.775-1.836-1.412-.58a6.281,6.281,0,0,0-.5,3.078,16.859,16.859,0,0,0,.719,4.254" transform="translate(-304.981 -236.025)" fill="#fc511b" stroke="#fc511b" stroke-linecap="round" stroke-linejoin="round" stroke-width="1.403"/>
                  <path id="Path_88294" data-name="Path 88294" d="M324.294,267.511c.1,1.861.132,4.616.2,6.479" transform="translate(-305.2 -236.088)" fill="none" stroke="#fc511b" stroke-linecap="round" stroke-linejoin="round" stroke-width="1.403"/>
                  <path id="Path_88295" data-name="Path 88295" d="M321.3,253.284l22.588,11.879a3.9,3.9,0,0,0,4.028-.242l24.391-16.855a3.9,3.9,0,0,0-.529-6.716l-23.594-11.328a3.894,3.894,0,0,0-3.914.316l-23.384,16.3A3.9,3.9,0,0,0,321.3,253.284Z" transform="translate(-304.336 -229.637)" fill="#335b98"/>
                  <path id="Path_88296" data-name="Path 88296" d="M358.86,257.505l-10.939,7.559a3.9,3.9,0,0,1-4.028.242L321.3,253.428a3.9,3.9,0,0,1-.414-6.643l23.384-16.3c-.885,2.851-.416,6.008.37,8.888a29.294,29.294,0,0,0,14.167,17.846" transform="translate(-304.336 -229.781)" fill="#1b3c89"/>
                  <path id="Path_88297" data-name="Path 88297" d="M365.793,280.3s-.4,16.046-14.795,15.737-13.614-16.645-13.614-16.645-2.1-17.257,11.563-18.843C364.044,258.795,366.133,269.543,365.793,280.3Z" transform="translate(-307.409 -234.869)" fill="#faa990"/>
                  <path id="Path_88303" data-name="Path 88303" d="M361.827,305.719l-7.819,7.734,3.91,4.5,7.819-8.839Z" transform="translate(-310.261 -242.595)" fill="#fff"/>
                  <path id="Path_88304" data-name="Path 88304" d="M354.008,314.151l3.91,4.5,7.819-8.839" transform="translate(-310.261 -243.293)" fill="none" stroke="#33332a" stroke-miterlimit="10" stroke-width="0.716"/>
                  <path id="Path_88305" data-name="Path 88305" d="M343.781,305.719l7.819,7.734-3.91,4.5-7.819-8.839Z" transform="translate(-307.853 -242.595)" fill="#fff"/>
                  <path id="Path_88306" data-name="Path 88306" d="M356.476,318.661l-2.032,2.695H351.96l-1.907-2.534,3.281-3.781Z" transform="translate(-309.587 -244.183)" fill="#33332a"/>
                  <path id="Path_88307" data-name="Path 88307" d="M351.115,327.47l1.026-4.818h2.484l.98,4.827a5.384,5.384,0,0,1-2.245.2A7.438,7.438,0,0,1,351.115,327.47Z" transform="translate(-309.768 -245.479)" fill="#33332a"/>
                  <path id="Path_88308" data-name="Path 88308" d="M351.6,314.151l-3.91,4.5-7.819-8.839" transform="translate(-307.853 -243.293)" fill="none" stroke="#33332a" stroke-miterlimit="10" stroke-width="0.716"/>
                  <path id="Path_88310" data-name="Path 88310" d="M366.192,273.127c-.807.52-1.87.011-2.64-.564a15.852,15.852,0,0,1-5.9-9c.006,1.459.6,2.994,0,4.326a3.533,3.533,0,0,1-2.968,1.859,6.91,6.91,0,0,1-4.372-1.308A20.552,20.552,0,0,1,346.9,265.3l-2.247-2.4a2.66,2.66,0,0,1,.426,1.552,8.366,8.366,0,0,1-.076,2.331,2.822,2.822,0,0,1-1.269,1.884,2.792,2.792,0,0,1-2.412.017,7.523,7.523,0,0,1-2.034-1.43c.294,1.915-.624,3.785-1.514,5.506-.266.514-.787,1.12-1.3.851-.284-.148-.367-.5-.447-.813-4.7-18.07,15.235-18.628,20.661-17.7,1.014.173,9.914,1.857,10.559,12.848.092,1.571-.049,4.047-.985,5.312" transform="translate(-307.077 -233.928)" fill="#33332a"/>
                  <path id="Path_88311" data-name="Path 88311" d="M365.052,250.417l1.4,12.034s-5.916-4.847-17.111-3.2-14.043,6.065-14.043,6.065l.012-13.019S349.575,243.975,365.052,250.417Z" transform="translate(-307.075 -232.76)" fill="#142b70"/>
                  <g id="Group_175017" data-name="Group 175017" transform="translate(25.318 37.326)">
                    <path id="Path_88312" data-name="Path 88312" d="M336.86,281.4a2.053,2.053,0,0,1-2.236.65,3.312,3.312,0,0,1-1.463-1.227,5.757,5.757,0,0,1-1.226-4.776,2.073,2.073,0,0,1,.617-1.084,1.877,1.877,0,0,1,1.994-.107,12.176,12.176,0,0,1,2.314,2.19Z" transform="translate(-331.796 -274.625)" fill="#faa990"/>
                  </g>
                  <g id="Group_175019" data-name="Group 175019" transform="translate(57.748 36.851)">
                    <path id="Path_88315" data-name="Path 88315" d="M371.151,280.831a2.053,2.053,0,0,0,2.236.65,3.314,3.314,0,0,0,1.463-1.228,5.749,5.749,0,0,0,1.226-4.776,2.082,2.082,0,0,0-.616-1.085,1.88,1.88,0,0,0-1.995-.106,15.453,15.453,0,0,0-2.582,2.483Z" transform="translate(-370.883 -274.053)" fill="#faa990"/>
                  </g>
                </g>
              </g>
            </g>
            <g id="Group_175023" data-name="Group 175023" transform="translate(10.952 7.504)">
              <circle id="Ellipse_3541" data-name="Ellipse 3541" cx="1.171" cy="1.171" r="1.171" transform="translate(8.002)" fill="#ff8526"/>
              <circle id="Ellipse_3542" data-name="Ellipse 3542" cx="1.171" cy="1.171" r="1.171" transform="translate(4.099)" fill="#ff8526"/>
              <circle id="Ellipse_3543" data-name="Ellipse 3543" cx="1.171" cy="1.171" r="1.171" fill="#ff8526"/>
            </g>
          </g>
          <path id="Path_88319" data-name="Path 88319" d="M407.078,233.535l-2.713,1.357v-1.625h-7.838v6.227h7.838v-1.688l2.713,1.151Z" transform="translate(-300.506 -211.411)" fill="#ff8526"/>
        </g>
      </g>
    </g>
  </g>
</svg>
